<?xml version="1.0" standalone="no"?>
<!DOCTYPE svg PUBLIC "-//W3C//DTD SVG 20010904//EN"
 "http://www.w3.org/TR/2001/REC-SVG-20010904/DTD/svg10.dtd">
<svg version="1.0" xmlns="http://www.w3.org/2000/svg"
 width="400.000000pt" height="400.000000pt" viewBox="0 0 1080.000000 1080.000000"
 preserveAspectRatio="xMidYMid meet">

<g transform="translate(0.000000,1080.000000) scale(0.100000,-0.100000)"
fill="#64ffda" stroke="none">
<path d="M1823 10433 c-68 -2 -123 -7 -123 -11 0 -28 146 -211 185 -232 14 -8
25 -21 24 -29 -3 -37 3 -53 36 -89 25 -28 42 -39 63 -39 16 0 40 -7 53 -17
l24 -17 -37 6 c-24 5 -38 3 -38 -3 0 -26 509 -734 554 -771 24 -20 20 -4 -13
48 -15 26 -32 58 -36 71 -7 22 -6 23 8 12 29 -25 71 -106 78 -156 7 -42 74
-166 89 -166 3 1 20 21 39 45 18 25 40 45 48 45 15 0 43 -57 43 -90 0 -11 25
-68 55 -128 l55 -107 -51 52 c-39 41 -49 58 -44 74 6 18 4 20 -15 14 -19 -6
-21 -4 -15 14 7 23 -4 28 -23 9 -18 -18 -16 4 4 46 19 40 13 66 -15 66 -28 0
-55 -43 -47 -75 7 -29 139 -205 189 -253 22 -21 37 -30 41 -23 13 21 23 11 29
-29 7 -52 69 -160 167 -292 96 -129 155 -185 177 -167 13 11 14 8 8 -24 -12
-63 28 -127 69 -111 20 8 21 54 1 80 -8 10 -15 25 -15 32 0 20 31 14 37 -8 7
-27 14 -25 44 12 33 40 62 34 57 -14 -2 -25 -16 -42 -65 -82 -34 -28 -62 -55
-62 -59 -1 -6 215 -298 257 -347 11 -13 12 -12 7 8 -6 20 -4 23 12 18 10 -3
30 1 46 9 32 17 36 6 6 -21 -31 -27 -41 -61 -27 -87 6 -12 42 -65 79 -119 l69
-96 7 -1321 8 -1322 205 -204 c136 -135 215 -206 234 -211 23 -5 41 -1 78 20
54 31 59 27 23 -16 -14 -16 -25 -38 -25 -49 0 -22 59 -89 188 -213 l92 -89 0
1842 0 1843 -44 56 c-24 32 -55 63 -69 71 -22 12 -27 11 -46 -8 -12 -12 -25
-21 -31 -21 -16 0 -31 39 -28 73 l3 32 18 -32 c19 -36 34 -42 43 -18 16 40
-106 205 -152 205 -17 0 -22 4 -18 15 21 53 -213 365 -285 381 -46 10 -51 13
-51 34 0 24 13 25 45 4 15 -10 25 -12 25 -5 0 16 -150 234 -240 348 -88 111
-115 129 -152 97 -21 -18 -21 -18 1 19 23 38 23 39 6 78 -10 21 -42 65 -70 97
-51 55 -53 56 -72 40 -18 -17 -19 -16 -19 15 0 62 -112 251 -211 358 -24 25
-43 51 -43 56 0 19 73 23 435 23 l360 -1 130 -177 c416 -569 644 -862 671
-862 10 0 13 -7 8 -24 -10 -43 79 -176 118 -176 22 0 60 46 56 67 -3 14 -11
17 -41 15 -37 -4 -42 2 -31 32 15 39 94 -4 94 -50 0 -11 -13 -35 -30 -54 -16
-19 -29 -43 -30 -53 0 -11 27 -55 60 -99 33 -43 63 -90 66 -104 9 -36 27 -30
78 27 48 54 146 194 146 210 0 5 -11 9 -25 9 -34 0 -73 21 -108 57 l-27 30 32
-4 c65 -8 77 -13 80 -36 7 -49 88 -22 88 29 0 15 10 28 28 38 30 16 93 91 201
241 40 55 134 185 210 288 76 104 148 209 161 234 l22 45 -21 29 c-24 33 -21
36 14 13 13 -9 33 -13 43 -10 27 9 102 119 102 149 0 27 -50 77 -76 77 -21 0
-17 -31 8 -57 22 -23 22 -23 2 -49 -22 -30 -70 -61 -80 -51 -3 3 5 20 20 37
31 38 33 60 6 60 -15 0 -20 7 -20 28 0 59 53 69 118 22 23 -16 49 -30 57 -30
26 0 49 49 47 100 -2 58 16 84 73 102 27 9 46 24 60 47 11 18 37 52 58 76 40
46 44 66 22 105 -20 34 -19 54 1 46 40 -15 58 43 28 89 -22 34 -29 125 -11
149 14 19 16 19 41 2 35 -22 43 -44 22 -59 -14 -11 -14 -16 0 -56 15 -44 15
-45 -16 -104 -17 -32 -29 -64 -27 -70 4 -14 66 63 121 153 45 73 58 119 34
121 -7 1 -24 2 -37 2 -30 2 -41 27 -11 27 11 0 34 -7 50 -15 27 -14 33 -14 59
-1 29 15 45 41 36 56 -3 5 17 28 45 51 55 46 61 63 28 74 -13 4 -232 9 -488
12 l-465 5 -121 -164 c-143 -192 -242 -341 -250 -375 -8 -30 10 -45 43 -36 17
4 23 1 23 -11 0 -26 -30 -31 -63 -12 l-30 17 -56 -58 c-77 -80 -211 -269 -211
-299 0 -3 9 -4 20 -1 23 6 26 -5 6 -22 -22 -19 -41 -4 -107 82 -80 105 -139
167 -159 167 -9 0 -29 14 -45 30 -34 35 -26 39 15 8 36 -26 50 -17 29 20 -17
32 -66 51 -131 51 -33 1 -50 6 -56 18 -9 15 -13 14 -42 -7 -42 -30 -50 -18
-50 78 0 108 21 135 71 92 l24 -20 -28 6 c-15 3 -27 2 -27 -3 0 -17 25 -41 45
-45 16 -3 19 -11 17 -36 -2 -28 1 -32 23 -32 14 0 37 -7 50 -16 53 -35 25 25
-74 155 -32 42 -110 151 -175 244 l-117 167 -1272 -2 c-700 -1 -1327 -4 -1394
-5z m9 -60 c14 -16 29 -39 33 -53 5 -14 24 -40 43 -57 39 -36 37 -54 -4 -32
-25 13 -104 116 -117 152 -10 26 16 21 45 -10z m2652 -1 c3 -5 -4 -16 -15 -25
-24 -21 -25 -50 -2 -45 9 2 20 14 24 28 l6 25 6 -25 c8 -30 29 -167 31 -195 0
-12 -5 -20 -14 -20 -11 0 -18 19 -25 70 -9 62 -13 70 -35 75 -20 5 -26 13 -28
42 -2 21 2 46 8 58 11 20 35 27 44 12z m1432 -37 c14 -25 24 -48 22 -51 -10
-9 -68 55 -68 75 0 34 17 24 46 -24z m82 23 c-2 -13 -11 -24 -20 -26 -21 -4
-24 18 -6 36 19 19 30 14 26 -10z m-150 -48 c10 -28 9 -30 -14 -30 -14 0 -36
-8 -51 -17 l-26 -17 13 24 c24 46 51 80 60 75 4 -3 13 -18 18 -35z m-3883 10
c4 -6 -7 -10 -27 -10 -25 0 -29 3 -18 10 19 13 37 13 45 0z m140 0 c4 -6 -7
-10 -27 -10 -25 0 -29 3 -18 10 19 13 37 13 45 0z m2507 -134 c6 -14 8 -32 4
-41 -10 -26 -36 1 -36 36 0 35 16 38 32 5z m1146 -38 c19 -19 14 -63 -8 -83
-23 -21 -23 -21 -11 23 5 17 7 32 4 32 -3 0 -21 -18 -40 -40 -31 -36 -63 -52
-63 -32 0 21 77 112 95 112 6 0 16 -5 23 -12z m607 -153 c0 -22 -31 -33 -48
-16 -7 7 -6 15 3 26 17 21 45 15 45 -10z m55 -69 c0 -22 -29 -41 -42 -28 -8 8
-8 15 2 27 16 19 40 20 40 1z m-4251 -26 c28 -39 18 -60 -15 -29 -23 21 -33
59 -16 59 5 0 18 -14 31 -30z m4097 -29 c-9 -16 -21 -33 -27 -37 -16 -10 -3
43 19 76 13 20 17 22 20 8 2 -9 -4 -30 -12 -47z m74 -45 c0 -21 -28 -46 -51
-46 -25 0 -24 8 3 37 24 26 48 30 48 9z m-4052 -69 c12 3 31 -10 60 -41 48
-52 65 -89 56 -118 -6 -20 -50 -46 -60 -35 -3 3 -9 35 -14 70 -9 78 -14 87
-44 87 -29 0 -65 28 -89 70 l-19 31 46 -34 c27 -22 53 -33 64 -30z m102 9 c-1
-20 -1 -20 -20 3 -11 13 -20 30 -20 39 0 13 3 12 20 -3 11 -10 20 -28 20 -39z
m933 29 c45 -8 197 -20 337 -27 l255 -13 -327 -6 c-208 -3 -331 -9 -340 -16
-7 -6 -23 -14 -35 -17 -34 -11 -28 11 7 29 34 18 37 30 13 58 -10 11 -12 17
-5 13 7 -4 50 -14 95 -21z m2183 -17 c11 -36 8 -122 -5 -147 -9 -16 -20 -21
-38 -19 -42 5 -41 28 1 28 41 0 49 22 15 40 -17 10 -20 18 -14 53 l6 42 -44
-48 c-25 -27 -59 -76 -76 -109 -28 -54 -31 -70 -31 -147 0 -83 -1 -85 -17 -62
l-16 24 -8 -21 c-15 -41 -107 -24 -154 28 l-20 23 42 -22 c23 -11 54 -21 68
-21 48 0 91 72 66 111 -6 10 -11 23 -11 29 0 12 144 199 172 223 28 24 55 21
64 -5z m-1312 -27 c13 -44 -4 -60 -38 -37 -30 19 -32 32 -9 58 22 24 36 18 47
-21z m-82 -50 c32 -51 36 -70 11 -50 -19 16 -73 99 -73 112 0 16 32 -17 62
-62z m-812 0 c0 -5 -21 -32 -46 -60 l-47 -52 54 -49 c42 -38 50 -49 34 -50
-27 0 -81 34 -95 61 -19 35 -3 84 40 123 39 35 60 45 60 27z m-157 -77 c-10
-30 -33 -45 -33 -20 0 8 5 27 10 42 15 38 36 17 23 -22z m1877 26 c9 -17 7
-22 -16 -30 -49 -19 -89 14 -46 39 27 16 50 13 62 -9z m-784 -41 c24 -25 35
-30 68 -27 l40 3 12 -49 c15 -59 28 -74 47 -57 20 16 27 -5 27 -83 0 -70 -5
-82 -27 -61 -32 33 -45 2 -18 -45 16 -29 19 -54 6 -45 -6 3 -29 40 -52 82 -23
42 -64 105 -90 140 -61 80 -69 95 -69 131 0 51 15 54 56 11z m-948 -164 c26
-2 49 -4 51 -4 2 -1 -2 -8 -9 -16 -24 -29 -74 -18 -139 31 -34 25 -61 48 -61
50 0 2 25 -10 56 -27 35 -20 72 -33 102 -34z m109 -79 l28 -25 -22 -16 c-12
-8 -25 -30 -29 -48 l-7 -32 -18 40 c-41 89 -14 134 48 81z m2550 -3 c5 -14
-33 -37 -47 -28 -15 9 9 47 27 43 9 -2 18 -8 20 -15z m-87 -1 c0 -15 -32 -52
-45 -52 -24 0 -26 18 -3 39 22 21 48 28 48 13z m110 -60 c0 -15 -70 -126 -96
-152 l-24 -25 0 28 c0 22 -4 28 -17 25 -10 -2 -22 -13 -28 -26 -11 -24 -25
-29 -25 -9 0 17 25 39 68 61 25 13 32 23 32 46 0 23 5 30 19 30 10 0 24 7 31
15 13 16 40 21 40 7z m-2490 -65 c0 -28 -26 -67 -45 -67 -17 0 -38 36 -30 50
3 6 17 7 31 4 20 -5 24 -2 24 15 0 12 5 21 10 21 6 0 10 -10 10 -23z m-782
-115 c4 -24 -7 -29 -26 -10 -18 18 -15 40 6 36 9 -2 18 -13 20 -26z m1939 -89
c-35 -50 -35 -67 -1 -59 23 6 24 5 14 -14 -17 -32 -38 -24 -70 27 -40 63 -39
75 7 71 44 -3 52 11 28 50 -16 25 -15 25 16 -5 l32 -32 -26 -38z m-1017 -20
c0 -13 -4 -23 -10 -23 -5 0 -10 9 -10 20 0 13 -7 20 -20 20 -23 0 -25 12 -9
42 11 20 12 20 30 -8 10 -16 19 -39 19 -51z m1065 -134 c-8 -23 -8 -23 -15 -4
-9 26 -1 50 12 37 6 -6 7 -21 3 -33z m85 -6 c0 -19 -18 -16 -30 6 -17 33 -12
46 10 26 11 -10 20 -24 20 -32z m848 -38 c-4 -41 -38 -49 -38 -8 0 15 3 39 7
52 6 23 7 23 20 5 8 -10 13 -32 11 -49z m-788 18 c0 -5 -9 -21 -20 -38 -27
-41 -25 -83 5 -128 14 -20 28 -37 32 -37 3 0 3 31 -1 69 -5 45 -3 71 4 76 24
15 41 -97 20 -136 -21 -38 -45 -20 -130 95 l-43 59 32 -6 c24 -5 36 -2 51 13
11 11 20 25 20 30 0 6 7 10 15 10 8 0 15 -3 15 -7z m-1740 -30 c0 -20 -31
-106 -45 -125 l-15 -22 0 21 c0 30 39 133 51 133 5 0 9 -3 9 -7z m757 -159 c3
-97 -8 -98 -25 -3 -12 61 -6 102 12 96 7 -2 12 -38 13 -93z m1753 88 c0 -10
-138 -174 -154 -184 -18 -10 -31 2 -55 50 -32 62 -23 86 12 34 15 -23 31 -42
37 -42 15 0 24 22 22 52 -2 25 1 28 31 28 25 0 42 9 67 35 36 37 40 40 40 27z
m-1677 -108 c16 -31 26 -59 23 -61 -7 -7 -66 87 -66 104 0 28 17 11 43 -43z
m-833 -8 c0 -35 -23 -66 -35 -46 -8 13 13 80 26 80 5 0 9 -15 9 -34z m110
-181 c-7 -8 -23 -15 -36 -15 -15 0 -24 6 -24 15 0 11 11 15 36 15 31 0 35 -2
24 -15z m99 -15 c4 -31 -27 -90 -48 -90 -9 0 -22 10 -29 21 -13 20 -12 21 12
15 24 -6 25 -4 20 24 -4 16 -4 37 0 45 9 24 40 14 45 -15z m780 -43 c8 14 14
16 28 7 10 -6 19 -19 21 -28 3 -13 -6 -16 -49 -16 l-52 0 6 -47 c6 -44 5 -46
-8 -29 -22 28 -29 84 -16 113 l12 26 23 -22 c23 -22 25 -22 35 -4z m1061 -25
c0 -5 -13 -18 -30 -30 -34 -25 -42 -57 -12 -48 12 4 35 -5 62 -25 l44 -32 14
22 c16 24 32 28 32 7 0 -17 -36 -63 -59 -76 -15 -8 -17 -6 -14 14 4 19 0 24
-27 29 -34 7 -90 57 -90 80 0 23 40 67 61 67 10 0 19 -4 19 -8z m50 -27 c0
-19 -4 -35 -10 -35 -5 0 -10 16 -10 35 0 19 5 35 10 35 6 0 10 -16 10 -35z
m-986 -76 c11 -12 14 -18 6 -12 -9 7 -38 13 -64 15 -31 2 -51 8 -54 17 -8 24
86 8 112 -20z m37 -172 c-22 -34 -27 -27 -12 19 5 16 13 43 17 59 l8 30 4 -38
c2 -26 -3 -48 -17 -70z m-685 -72 c13 -20 14 -30 4 -60 -14 -41 -32 -45 -48
-10 -15 32 -15 51 -2 76 14 25 26 24 46 -6z m104 -24 c14 -28 12 -51 -5 -51
-18 0 -49 45 -40 60 10 16 33 12 45 -9z m-22 -123 c10 -24 26 -49 35 -57 10
-7 17 -20 17 -28 0 -12 -3 -12 -22 1 -26 19 -78 93 -78 113 0 29 30 11 48 -29z
m902 -86 c0 -15 -24 -32 -44 -32 -20 1 -20 1 3 20 24 21 41 26 41 12z m57 -74
c26 -24 31 -77 12 -125 l-11 -28 -50 55 -50 55 7 -45 7 -45 -19 25 c-45 56
-71 129 -35 97 23 -21 51 -22 59 -1 5 13 32 30 52 33 3 1 15 -9 28 -21z m-632
-193 c-10 -24 -15 -54 -12 -67 8 -32 -8 -57 -25 -40 -15 15 2 107 28 148 25
37 29 14 9 -41z m-100 4 c0 -15 -6 -24 -15 -24 -10 0 -14 8 -12 24 1 13 -3 31
-10 40 -12 14 -11 14 12 0 15 -10 25 -26 25 -40z m67 -2708 c8 -22 10 -23 27
-7 17 16 19 15 24 -12 7 -36 -2 -74 -16 -69 -23 7 -49 56 -53 98 -4 43 -1 41
18 -10z m164 -180 c47 -34 89 -79 82 -86 -6 -6 -92 60 -122 94 -27 30 -6 26
40 -8z m508 -435 c-19 -14 -19 -15 4 -45 25 -34 16 -39 -27 -16 -54 28 -47 75
12 75 29 0 30 -1 11 -14z"/>
<path d="M4207 9573 c18 -52 163 -209 171 -185 4 14 -34 90 -60 119 -11 12
-27 19 -34 16 -9 -3 -29 10 -49 31 -19 21 -32 29 -28 19z"/>
<path d="M4565 7689 c-4 -5 1 -19 11 -30 16 -18 19 -18 27 -4 14 27 -23 60
-38 34z"/>
<path d="M6480 10143 c0 -24 26 -60 36 -50 10 10 -8 59 -23 65 -8 2 -13 -5
-13 -15z"/>
<path d="M4693 9945 c-7 -19 30 -61 45 -51 15 9 2 45 -19 57 -15 8 -21 6 -26
-6z"/>
<path d="M6272 9688 c-14 -14 -16 -48 -4 -48 12 0 42 34 42 48 0 16 -23 15
-38 0z"/>
<path d="M6920 9418 c-233 -317 -293 -399 -595 -818 -154 -212 -309 -425 -345
-475 -36 -49 -121 -168 -188 -263 l-122 -173 4 -1522 c2 -837 4 -1529 4 -1537
1 -8 -1 -92 -4 -186 -7 -195 4 -293 37 -338 17 -23 18 -28 6 -23 -9 3 -23 -1
-32 -9 -13 -13 -15 -36 -13 -118 l3 -101 33 -17 c32 -15 32 -17 11 -20 -47 -6
-53 -41 -53 -320 0 -175 3 -261 10 -268 9 -9 14 -3 22 19 12 33 29 40 38 16 3
-8 -5 -28 -19 -45 -34 -40 -42 -94 -42 -275 0 -123 3 -156 17 -184 17 -32 17
-34 0 -47 -15 -11 -17 -32 -18 -176 0 -90 -4 -188 -8 -218 -6 -42 -4 -62 8
-85 12 -22 16 -59 16 -137 0 -60 -1 -108 -3 -108 -1 0 -32 27 -67 61 -83 78
-233 195 -282 220 -20 10 -47 19 -60 19 -17 0 -19 3 -10 12 17 17 15 23 -19
63 -26 29 -34 33 -51 24 -11 -6 -17 -17 -14 -24 3 -9 0 -12 -9 -9 -7 3 -35
-11 -63 -30 -27 -20 -52 -36 -55 -36 -2 0 -12 11 -20 24 -15 22 -14 24 30 55
l46 32 -57 35 c-31 19 -62 34 -69 34 -26 1 -97 40 -97 53 0 8 22 29 50 47 27
18 48 35 45 40 -2 4 -29 26 -59 49 -36 28 -67 44 -90 45 -37 3 -96 38 -136 81
-35 38 -10 30 54 -16 32 -23 59 -39 62 -36 14 13 -700 637 -729 637 -5 0 -6
-17 -3 -37 6 -37 6 -38 -8 -13 -9 14 -15 39 -16 56 0 41 -66 104 -109 104 -22
0 -30 6 -35 23 -3 12 -19 36 -36 52 l-30 29 0 -30 c0 -16 7 -38 15 -48 20 -26
19 -50 0 -42 -13 5 -15 -49 -15 -449 l0 -454 236 -212 236 -212 38 12 c65 19
109 -11 125 -87 10 -47 -7 -39 -49 23 -33 50 -38 54 -56 43 -11 -7 -20 -16
-20 -20 0 -8 125 -118 134 -118 4 0 59 -46 122 -102 94 -82 121 -101 145 -100
27 1 29 -1 17 -15 -13 -16 6 -37 130 -141 l43 -36 32 19 c32 18 32 18 15 -2
-10 -11 -18 -26 -17 -34 0 -8 95 -96 210 -197 163 -143 208 -177 203 -157 -6
24 -4 26 17 23 19 -2 25 -10 27 -37 2 -19 9 -42 15 -51 15 -21 708 -630 724
-637 7 -3 26 5 43 17 41 29 47 20 14 -19 -14 -18 -25 -33 -23 -34 2 -2 38 -33
79 -69 74 -65 77 -67 120 -62 36 4 41 3 28 -6 -26 -16 -22 -32 17 -70 l35 -34
1 1115 c0 1337 0 1332 -12 1343 -5 6 -9 22 -9 36 0 38 -19 59 -70 75 -31 9
-38 14 -21 14 14 1 33 9 43 18 15 13 21 14 27 4 11 -17 21 124 21 292 l0 137
-65 0 c-87 0 -135 20 -135 55 0 26 1 27 48 20 47 -6 48 -6 47 21 0 44 22 39
28 -7 7 -52 30 -78 55 -63 27 17 26 65 -2 107 -14 20 -21 37 -17 37 20 0 33
73 38 210 7 172 -9 329 -37 377 l-19 33 22 -3 c19 -2 22 4 29 58 5 33 7 113 6
178 -2 64 0 117 5 117 4 0 7 673 7 1495 l0 1495 152 212 c191 268 452 629 623
863 272 372 614 845 778 1078 l48 67 -503 0 -503 0 -155 -212z m-1152 -5009
c-12 -7 -24 -7 -35 0 -15 9 -12 10 17 10 29 0 32 -1 18 -10z m639 -19 c45 -29
46 -31 24 -37 l-23 -6 22 -12 23 -12 -29 -7 c-25 -7 -26 -9 -11 -17 18 -11 22
-78 8 -129 -5 -18 -12 4 -24 83 -9 59 -24 121 -32 137 -9 17 -13 30 -11 30 3
0 27 -14 53 -30z m-635 -47 c9 -10 18 -28 22 -40 3 -13 9 -33 12 -45 l6 -21
-27 21 c-15 12 -38 22 -51 22 -26 0 -32 26 -14 61 13 24 32 24 52 2z m32 -191
c-17 -27 -41 -26 -70 3 -27 27 -26 48 1 25 13 -11 19 -11 33 3 15 15 18 15 31
2 12 -12 13 -20 5 -33z m542 -113 c51 -35 73 -59 52 -59 -19 0 -120 71 -126
88 -5 16 22 6 74 -29z m-571 -79 c3 -6 -1 -13 -9 -16 -11 -4 -14 -14 -10 -33
6 -23 5 -24 -8 -11 -17 16 -31 74 -21 83 7 7 39 -9 48 -23z m649 -46 c20 -19
20 -34 2 -34 -15 0 -56 46 -56 62 0 11 32 -6 54 -28z m26 -188 c0 -15 -21 -26
-47 -26 -14 0 -14 3 2 20 21 23 45 26 45 6z m-73 -83 c9 -16 19 -30 21 -33 2
-3 10 4 18 14 13 19 14 18 14 -12 0 -36 -6 -38 -53 -19 -39 17 -61 42 -53 62
9 24 34 18 53 -12z m-629 -86 c22 -23 67 -116 59 -123 -4 -5 -83 105 -93 130
-9 23 9 20 34 -7z m-24 -73 c3 -9 6 -39 5 -67 -1 -49 -1 -50 -9 -17 -16 75
-19 100 -11 100 5 0 12 -7 15 -16z m-1530 -255 c25 -20 35 -49 16 -49 -11 0
-60 51 -60 62 0 14 16 9 44 -13z m1618 -69 c10 -14 21 -43 23 -65 l5 -40 -15
33 c-20 43 -41 50 -69 23 -31 -29 -56 -27 -56 3 0 30 16 42 35 26 15 -12 31 3
20 20 -9 15 4 32 22 28 9 -2 24 -14 35 -28z m-1494 -24 c12 -11 25 -37 29 -58
6 -39 25 -58 60 -58 36 0 93 -21 93 -35 0 -22 -30 -45 -59 -45 -43 0 -131 92
-131 136 0 20 -9 44 -25 62 -44 53 -29 52 33 -2z m2106 22 c17 -24 22 -78 7
-78 -15 0 -60 40 -66 60 -14 43 33 56 59 18z m-89 -93 c0 -43 -29 -40 -33 3
-3 28 0 33 15 30 13 -2 18 -12 18 -33z m-545 -22 c0 -4 -20 -26 -45 -49 -51
-47 -61 -33 -14 21 28 31 59 46 59 28z m625 -43 c7 -44 -2 -120 -15 -120 -8 0
-20 139 -13 153 10 18 22 4 28 -33z m-2124 -8 c14 -12 18 -21 11 -26 -6 -3
-23 5 -39 19 -21 18 -24 24 -12 25 9 0 27 -8 40 -18z m1504 -190 c-11 -12 -85
45 -85 65 0 9 17 -1 44 -24 24 -21 43 -39 41 -41z m-877 -174 c19 -19 14 -30
-10 -26 -13 2 -24 11 -26 21 -4 20 18 23 36 5z m-510 -400 c-6 -16 -55 -31
-76 -23 -14 6 -12 10 13 21 38 17 68 18 63 2z m902 2 c0 -11 -93 -40 -129 -40
-38 0 -14 17 49 34 67 18 80 19 80 6z m-786 -74 c41 -60 56 -117 36 -141 -22
-26 -30 -16 -30 38 0 34 -9 70 -25 105 -13 28 -23 52 -21 52 1 0 19 -24 40
-54z m884 32 c-5 -15 -88 -24 -88 -9 0 13 18 19 58 20 23 1 32 -3 30 -11z
m130 -115 c-4 -34 -28 -43 -28 -10 0 25 7 37 22 37 5 0 8 -12 6 -27z m80 -65
c20 -20 14 -33 -23 -51 -45 -21 -81 -22 -89 -1 -11 28 4 37 51 30 41 -5 44 -4
38 14 -7 22 5 26 23 8z m-937 -33 c31 -17 31 -35 0 -35 -10 0 -24 -7 -31 -15
-7 -8 -19 -15 -26 -15 -19 0 -48 46 -40 65 7 20 58 19 97 0z m95 -79 c29 -22
7 -50 -42 -53 -35 -2 -37 -1 -16 9 13 7 22 20 22 35 0 27 8 29 36 9z m147
-174 c-3 -12 3 -22 19 -29 l23 -12 -23 0 c-13 -1 -37 6 -54 15 -30 16 -31 17
-13 30 28 20 54 18 48 -4z m363 -283 c74 -19 65 -32 -17 -24 -89 8 -111 13
-104 26 8 12 67 11 121 -2z m-28 -63 c15 -8 38 -27 52 -42 l25 -28 -35 20
c-62 36 -80 49 -80 56 0 11 7 10 38 -6z m340 -156 c38 -24 42 -33 6 -20 -44
17 -54 13 -54 -23 0 -18 -6 -42 -14 -52 -12 -16 -16 -17 -30 -6 -23 19 -20 40
6 50 l22 8 -22 14 c-24 15 -29 35 -9 42 26 11 63 6 95 -13z m27 -136 c0 -27 4
-56 8 -64 5 -8 -1 -4 -12 9 -24 27 -31 116 -8 108 7 -2 12 -23 12 -53z m130
-114 c3 -5 1 -10 -4 -10 -6 0 -11 5 -11 10 0 6 2 10 4 10 3 0 8 -4 11 -10z"/>
<path d="M3486 8198 c-10 -15 -16 -33 -14 -40 3 -8 11 -2 22 14 10 15 16 33
14 40 -3 8 -11 2 -22 -14z"/>
<path d="M6300 3315 c7 -8 24 -15 39 -15 25 1 25 1 7 15 -11 8 -29 15 -39 15
-16 0 -17 -3 -7 -15z"/>
<path d="M4957 2552 c-10 -10 -17 -27 -17 -36 0 -15 6 -17 38 -13 20 3 48 8
61 12 22 7 22 6 11 -14 -11 -21 -10 -22 9 -16 23 7 28 -4 9 -23 -9 -9 -7 -12
12 -12 13 0 32 -8 42 -17 17 -15 20 -15 34 -1 13 13 9 19 -38 59 -100 85 -129
96 -161 61z"/>
</g>
</svg>
